<?xml version="1.0" encoding="utf-8"?><svg xmlns="http://www.w3.org/2000/svg" xmlns:xlink="http://www.w3.org/1999/xlink"><symbol viewBox="0 0 451.85 451.85" id="arrow" xmlns="http://www.w3.org/2000/svg"><path d="M225.923 354.706c-8.098 0-16.195-3.092-22.369-9.263L9.27 151.157c-12.359-12.359-12.359-32.397 0-44.751 12.354-12.354 32.388-12.354 44.748 0l171.905 171.915 171.906-171.909c12.359-12.354 32.391-12.354 44.744 0 12.365 12.354 12.365 32.392 0 44.751L248.292 345.449c-6.177 6.172-14.274 9.257-22.369 9.257z"/></symbol><symbol viewBox="0 0 24 24" id="basket" xmlns="http://www.w3.org/2000/svg"><path d="M23.426 4.554c-.45-.508-1.09-.788-1.803-.788h-5.386V.703a.706.706 0 00-.71-.703h-3.802a.707.707 0 00-.71.703v3.063H4.374L4.2 2.476C4.013 1.089 3.037 0 1.977 0H.71A.707.707 0 000 .703c0 .388.318.703.71.703h1.267c.228 0 .71.477.815 1.256l2.033 15.096c.09.665.434 1.288.972 1.754.398.346.87.575 1.362.671a2.55 2.55 0 00-.315 1.231C6.844 22.84 8.016 24 9.455 24c1.44 0 2.612-1.16 2.612-2.586a2.54 2.54 0 00-.29-1.18h3.721a2.549 2.549 0 00-.288 1.18c0 1.426 1.17 2.586 2.61 2.586s2.612-1.16 2.612-2.586a2.55 2.55 0 00-.289-1.18h1.86c.392 0 .71-.315.71-.703a.707.707 0 00-.71-.703H7.681c-.694 0-1.357-.575-1.449-1.256l-.148-1.103h14.018c.678 0 1.347-.257 1.884-.723a2.838 2.838 0 00.973-1.754l1.018-7.564c.094-.7-.101-1.366-.55-1.874zm-12.78 16.86c0 .65-.534 1.18-1.19 1.18-.657 0-1.192-.53-1.192-1.18 0-.65.535-1.18 1.191-1.18.657 0 1.192.53 1.192 1.18zm8.366 0c0 .65-.534 1.18-1.191 1.18s-1.191-.53-1.191-1.18c0-.65.534-1.18 1.19-1.18.658 0 1.192.53 1.192 1.18zM12.435 1.406h2.383v6.828c0 .389.317.704.71.704h.25l-2.11 2.072-2.108-2.072h.165c.392 0 .71-.315.71-.704V1.406zM22.57 6.242l-1.018 7.564c-.092.681-.755 1.256-1.449 1.256H5.894l-1.331-9.89h6.452v2.36h-1.18a.71.71 0 00-.656.435.698.698 0 00.157.767l3.833 3.765a.71.71 0 001 0l3.833-3.765a.698.698 0 00.156-.767.71.71 0 00-.656-.436h-1.264v-2.36h5.385a.96.96 0 01.735.309.94.94 0 01.211.762z"/></symbol><symbol viewBox="0 0 15 16" id="basket02" xmlns="http://www.w3.org/2000/svg"><path fill-rule="evenodd" clip-rule="evenodd" d="M8.93 1.6H3.546L2.889 0H.478v1.6h1.461L4.57 7.68 3.547 9.6c-.073.24-.146.56-.146.8 0 .88.658 1.6 1.462 1.6h8.77v-1.6H5.154c-.073 0-.146-.08-.146-.16v-.08l.657-1.36h5.409c.584 0 1.023-.32 1.242-.8l.524-1.035c-.16.023-.322.035-.487.035-2.019 0-3.655-1.79-3.655-4 0-.493.082-.964.23-1.4zM3.4 14.4c0-.88.659-1.6 1.462-1.6.804 0 1.462.72 1.462 1.6 0 .88-.658 1.6-1.462 1.6-.803 0-1.461-.72-1.461-1.6zm7.31 0c0-.88.657-1.6 1.46-1.6.805 0 1.462.72 1.462 1.6 0 .88-.657 1.6-1.461 1.6s-1.462-.72-1.462-1.6z"/><path d="M10.526 3h3.655m-1.827-2v4"/></symbol><symbol viewBox="0 0 81 51" id="cargo" xmlns="http://www.w3.org/2000/svg"><path d="M74.98 21.62l-2.088-8.35c.571-.122 1-.628 1-1.235v-1.347a5.308 5.308 0 00-5.302-5.302h-9.51V2.61A2.612 2.612 0 0056.47 0H7.996a2.612 2.612 0 00-2.609 2.609V25.5a1.262 1.262 0 102.525 0V2.61c0-.046.038-.084.084-.084h48.476c.046 0 .084.038.084.084V25.5a1.262 1.262 0 002.524 0v-1.43h14.899a4.131 4.131 0 013.921 2.86h-3.926c-.697 0-1.262.565-1.262 1.262v2.694a3.96 3.96 0 003.955 3.955H78.1v5.554h-3.3c-1.085-3.13-4.061-5.386-7.556-5.386s-6.472 2.255-7.556 5.386h-.608v-9.51a1.262 1.262 0 00-2.525 0v9.51H30.363c-1.085-3.13-4.06-5.386-7.556-5.386-3.495 0-6.471 2.255-7.556 5.386H7.995a.084.084 0 01-.084-.084v-2.777h5.47a1.262 1.262 0 000-2.525H1.262a1.262 1.262 0 000 2.525h4.124v2.777a2.612 2.612 0 002.61 2.609h6.818l-.002.084c0 4.408 3.587 7.995 7.995 7.995 4.408 0 7.995-3.587 7.995-7.995l-.002-.084h28.45l-.002.084c0 4.408 3.586 7.995 7.995 7.995 4.408 0 7.995-3.587 7.995-7.995l-.002-.084h4.126c.697 0 1.262-.565 1.262-1.263V28.193c0-3.324-2.453-6.087-5.644-6.572zM59.08 7.912h9.51a2.78 2.78 0 012.777 2.777v.085H59.08V7.91zm0 13.634v-8.248h11.217l2.062 8.248h-13.28zm-36.273 26.93a5.476 5.476 0 01-5.47-5.47 5.476 5.476 0 015.47-5.47 5.476 5.476 0 015.47 5.47 5.476 5.476 0 01-5.47 5.47zm44.436 0a5.476 5.476 0 01-5.47-5.47 5.476 5.476 0 015.47-5.47 5.476 5.476 0 015.47 5.47 5.476 5.476 0 01-5.47 5.47zM78.1 32.318h-1.431c-.79 0-1.431-.642-1.431-1.43v-1.431h2.861v2.861z"/><path d="M22.808 40.397a2.612 2.612 0 00-2.61 2.608 2.612 2.612 0 002.61 2.61 2.612 2.612 0 002.609-2.61 2.612 2.612 0 00-2.61-2.608zm44.435 0a2.612 2.612 0 00-2.61 2.608 2.612 2.612 0 002.61 2.61 2.612 2.612 0 002.609-2.61 2.612 2.612 0 00-2.61-2.608zM52.431 35.01H33.58a1.262 1.262 0 000 2.525h18.85a1.262 1.262 0 000-2.525zm-32.316-5.387H3.956a1.263 1.263 0 000 2.525h16.159a1.262 1.262 0 000-2.525zm23.783-17.136a1.262 1.262 0 00-1.786 0L30.886 23.713l-5.84-5.84a1.262 1.262 0 10-1.785 1.785l6.733 6.733a1.258 1.258 0 001.785 0l12.119-12.119a1.263 1.263 0 000-1.785z"/></symbol><symbol viewBox="0 0 41 61" id="certif" xmlns="http://www.w3.org/2000/svg"><path fill-rule="evenodd" clip-rule="evenodd" d="M40.52 11.932c0-.013 0-.026-.002-.039a1.193 1.193 0 00-.019-.153c-.01-.05-.024-.1-.04-.149l-.014-.036a1.284 1.284 0 00-.059-.135l-.004-.007a1.181 1.181 0 00-.082-.131l-.023-.032a1.199 1.199 0 00-.104-.12L29.393.35a1.201 1.201 0 00-.12-.103L29.24.222a1.12 1.12 0 00-.13-.082L29.1.135a1.25 1.25 0 00-.318-.112 1.28 1.28 0 00-.153-.02h-.039L28.55 0H1.557C.899 0 .365.533.365 1.191v50.995c0 .658.534 1.192 1.192 1.192h17.937v6.43a1.192 1.192 0 001.825 1.01l4.537-2.847 4.538 2.847a1.193 1.193 0 001.825-1.01v-6.43h7.112c.658 0 1.191-.534 1.191-1.192V11.973l-.002-.04zM29.741 4.068l6.714 6.713H29.74V4.068zM18.906 36.799c-.084-.228-.22-.6-.223-.752.093-.115.416-.32.614-.444.424-.268.905-.572 1.254-1.048.353-.48.496-1.036.622-1.526.056-.214.145-.56.221-.69.042-.01.13-.022.296-.022.132 0 .28.008.438.016.18.009.367.018.561.018.43 0 .776-.049 1.09-.153.548-.183.987-.536 1.374-.848.215-.172.573-.46.698-.478.136.018.494.306.708.478.387.312.826.665 1.375.848.314.104.66.153 1.09.153.194 0 .38-.01.56-.018.158-.008.306-.016.44-.016.165 0 .252.012.294.022.077.13.166.476.22.69.128.49.271 1.045.624 1.526.348.476.83.78 1.254 1.048.198.125.52.329.614.444-.004.153-.14.524-.223.752-.178.483-.378 1.03-.378 1.636 0 .607.2 1.154.377 1.637.084.228.22.6.224.752-.093.115-.416.319-.614.444-.425.268-.906.573-1.254 1.048-.353.481-.496 1.036-.623 1.526-.055.213-.145.56-.22.69-.043.01-.13.022-.296.022-.133 0-.281-.008-.439-.016-.18-.008-.366-.018-.56-.018-.43 0-.776.049-1.09.153-.549.183-.988.537-1.375.848-.21.17-.563.453-.703.478-.14-.025-.491-.308-.702-.478-.388-.311-.827-.665-1.375-.848-.314-.104-.66-.153-1.09-.153-.194 0-.38.01-.561.018a9.06 9.06 0 01-.439.016 1.49 1.49 0 01-.295-.022c-.076-.13-.165-.476-.22-.69-.127-.49-.27-1.045-.623-1.526-.348-.475-.83-.78-1.254-1.048-.198-.124-.52-.329-.614-.444.003-.152.14-.524.223-.752.177-.483.378-1.03.378-1.636 0-.607-.201-1.154-.378-1.637zm10.93 20.856l-3.346-2.1a1.194 1.194 0 00-1.267 0l-3.346 2.1V46.933c.126-.004.25-.008.371-.014.158-.009.307-.016.441-.016.212 0 .302.02.337.03.142.048.414.268.634.444.556.448 1.248 1.005 2.196 1.005.949 0 1.64-.557 2.197-1.005.219-.176.492-.396.633-.443.036-.011.126-.03.337-.03.135 0 .284.007.441.014.12.007.245.012.371.015v10.722zm2.383-6.66v-5.022c.354-.481.502-1.051.627-1.535.066-.254.155-.602.237-.713.082-.112.385-.303.606-.443.586-.37 1.316-.831 1.606-1.703.286-.86-.012-1.674-.252-2.327-.108-.297-.232-.633-.232-.817 0-.183.124-.519.233-.816.24-.653.538-1.466.25-2.327-.29-.872-1.019-1.333-1.605-1.703-.221-.14-.524-.332-.606-.442-.082-.112-.172-.46-.237-.714-.171-.663-.384-1.489-1.114-2.024-.581-.425-1.254-.474-1.71-.474-.192 0-.378.009-.558.018a8.946 8.946 0 01-.44.015 1.17 1.17 0 01-.337-.03c-.142-.048-.415-.267-.634-.444-.556-.447-1.248-1.005-2.197-1.005-.948 0-1.64.558-2.197 1.005-.219.176-.491.396-.633.443a1.173 1.173 0 01-.337.031c-.134 0-.283-.007-.441-.015a9.98 9.98 0 00-.559-.018c-.455 0-1.127.049-1.707.474-.73.535-.944 1.361-1.116 2.024-.065.254-.155.602-.236.713-.082.111-.385.303-.606.443-.587.37-1.316.831-1.607 1.703-.286.861.012 1.674.252 2.328.109.296.232.632.232.815 0 .184-.123.52-.232.817-.24.653-.538 1.466-.252 2.327.29.872 1.02 1.333 1.607 1.703.221.14.524.332.605.443.082.111.172.459.237.713.126.484.274 1.054.628 1.535v5.022H2.748V2.383h24.61v9.59c0 .658.534 1.191 1.192 1.191h9.59v37.83h-5.922z"/><path fill-rule="evenodd" clip-rule="evenodd" d="M7.378 13.164h15.35a1.192 1.192 0 000-2.383H7.378a1.191 1.191 0 100 2.383zm26.264 3.631H7.378a1.191 1.191 0 100 2.383h26.264a1.191 1.191 0 100-2.383zm-4.765 6.014H7.378a1.192 1.192 0 000 2.382h21.499a1.191 1.191 0 100-2.382zm4.765 0c-.656 0-1.191.535-1.191 1.191s.535 1.191 1.191 1.191c.657 0 1.191-.535 1.191-1.191s-.534-1.191-1.19-1.191z"/></symbol><symbol viewBox="0 0 58 58" id="change" xmlns="http://www.w3.org/2000/svg"><path d="M57.412 12.544L34.823.14a1.133 1.133 0 00-1.09 0l-8.514 4.675c-.18.047-.348.137-.487.267l-13.588 7.462a1.131 1.131 0 00-.587.993v15.001a14.994 14.994 0 00-6.14 3.729A15.076 15.076 0 001.53 49.543a1.132 1.132 0 102.036-.995 12.81 12.81 0 012.454-14.68 12.724 12.724 0 019.057-3.751c3.42 0 6.637 1.332 9.056 3.751a12.724 12.724 0 013.751 9.056 12.72 12.72 0 01-3.752 9.056 12.81 12.81 0 01-14.68 2.455 1.132 1.132 0 10-.993 2.036 15.08 15.08 0 0017.276-2.888 15.07 15.07 0 003.118-4.523l4.881 2.68a1.13 1.13 0 001.09 0l22.59-12.403c.362-.2.587-.58.587-.993V30.47a1.133 1.133 0 10-2.266 0v7.202L35.415 48.83V26.61l6.707-3.683v5.838a1.132 1.132 0 001.678.992l4.841-2.664c.362-.2.586-.58.586-.992v-7.076l6.508-3.573v5.958a1.133 1.133 0 102.266 0v-7.872a1.13 1.13 0 00-.588-.993zM34.278 2.424l20.236 11.113-6.384 3.505L27.895 5.93l6.383-3.505zm0 22.224L14.043 13.537l6.617-3.634 20.236 11.111-6.618 3.634zm8.971-4.926L23.014 8.61l2.527-1.389 20.236 11.112-2.528 1.388zM25.734 32.266a14.974 14.974 0 00-10.658-4.414c-.762 0-1.514.056-2.254.166V15.451L33.15 26.613v22.222l-3.528-1.937c.348-1.279.527-2.613.527-3.974a14.97 14.97 0 00-4.414-10.657zM46.96 25.43l-2.575 1.418v-5.166l2.575-1.414v5.162z"/><path d="M56.867 24.8c-.298 0-.59.122-.8.333a1.14 1.14 0 00-.333.8c0 .298.122.59.332.801.21.211.503.332.801.332A1.137 1.137 0 0058 25.934c0-.299-.121-.59-.332-.801a1.141 1.141 0 00-.8-.332zm-45.6 19.256a1.133 1.133 0 00.801-1.934l-.784-.784h6.695a2.949 2.949 0 012.945 2.945 2.949 2.949 0 01-2.945 2.945h-3.967a1.133 1.133 0 100 2.265h3.967a5.217 5.217 0 005.21-5.21 5.217 5.217 0 00-5.21-5.21h-6.695l.784-.786a1.133 1.133 0 00-1.602-1.602l-2.718 2.719a1.134 1.134 0 000 1.602l2.718 2.718c.222.222.511.332.801.332zm-6.048 9.86a1.13 1.13 0 01-.866-.403l-.002-.003a1.132 1.132 0 111.597.14 1.13 1.13 0 01-.729.266z"/></symbol><symbol viewBox="0 0 25 25" id="enter" xmlns="http://www.w3.org/2000/svg"><g clip-path="url(#gclip0)"><path d="M10.677 11.719H.781a.782.782 0 010-1.563h9.896a.782.782 0 010 1.563z"/><path d="M6.77 15.625a.782.782 0 01-.552-1.334l3.355-3.355-3.354-3.353a.782.782 0 011.105-1.105l3.906 3.906c.305.305.305.8 0 1.105l-3.906 3.907a.78.78 0 01-.553.229zM16.667 25a2.085 2.085 0 01-2.084-2.084V4.166c0-.89.567-1.685 1.41-1.978l6.26-2.086c1.4-.43 2.747.61 2.747 1.981v18.75c0 .89-.567 1.684-1.41 1.977l-6.26 2.088a2.18 2.18 0 01-.663.102zm6.25-23.438a.612.612 0 00-.187.027l-6.232 2.079a.537.537 0 00-.352.498v18.75c0 .356.385.595.707.494l6.232-2.078a.539.539 0 00.353-.499V2.083a.522.522 0 00-.521-.52z"/><path d="M9.115 5.208a.782.782 0 01-.781-.78V2.864A2.867 2.867 0 0111.198 0h11.719a.782.782 0 010 1.563H11.198c-.718 0-1.302.584-1.302 1.302v1.562c0 .431-.35.781-.781.781zm6.25 16.667h-4.167a2.867 2.867 0 01-2.864-2.864v-1.563a.782.782 0 011.562 0v1.563c0 .718.584 1.302 1.302 1.302h4.167a.782.782 0 010 1.562z"/></g><defs><clipPath id="gclip0"><path d="M0 0h25v25H0z"/></clipPath></defs></symbol><symbol viewBox="0 0 24 23" id="instagram" xmlns="http://www.w3.org/2000/svg"><path d="M16.935.097L7.082.084a6.075 6.075 0 00-6.077 6.06l-.013 9.853a6.075 6.075 0 006.06 6.077l9.853.013a6.075 6.075 0 006.077-6.06l.013-9.853a6.075 6.075 0 00-6.06-6.077zm4.096 15.927a4.122 4.122 0 01-4.123 4.112l-9.854-.014A4.122 4.122 0 012.943 16l.013-9.853A4.122 4.122 0 017.08 2.035l9.853.013a4.122 4.122 0 014.112 4.123l-.013 9.853z"/><path d="M12.001 5.419a5.672 5.672 0 00-5.674 5.658 5.672 5.672 0 005.658 5.674 5.672 5.672 0 005.674-5.658 5.672 5.672 0 00-5.658-5.674zm-.013 9.38a3.72 3.72 0 01-3.71-3.72 3.72 3.72 0 013.72-3.71 3.72 3.72 0 013.71 3.721 3.72 3.72 0 01-3.72 3.71zm5.92-11.026a1.436 1.436 0 00-1.433 1.43c0 .375.152.745.419 1.012.265.265.634.42 1.01.42.377 0 .745-.153 1.012-.418a1.43 1.43 0 00.003-2.023 1.437 1.437 0 00-1.011-.42z"/></symbol><symbol viewBox="0 0 12 10" id="mail" xmlns="http://www.w3.org/2000/svg"><path d="M1.152 3.192c.152.107.61.426 1.373.955.763.529 1.348.936 1.754 1.222.045.03.14.099.285.204.145.105.265.19.361.254.096.065.212.138.348.218.137.08.265.14.385.18.121.04.233.06.335.06h.014c.102 0 .214-.02.335-.06.12-.04.249-.1.385-.18a7.077 7.077 0 00.71-.472c.144-.105.24-.173.284-.204.41-.286 1.455-1.012 3.134-2.177a3.18 3.18 0 00.817-.823A1.77 1.77 0 0012 1.358c0-.295-.106-.547-.318-.757a1.035 1.035 0 00-.754-.315H1.072C.728.286.463.402.278.634.093.866 0 1.157 0 1.504c0 .282.123.587.368.915.246.328.507.586.784.773z"/><path d="M11.33 3.909a139.152 139.152 0 00-3.334 2.31 16.55 16.55 0 01-.62.439c-.158.105-.37.212-.633.321-.263.11-.508.164-.736.164h-.014c-.227 0-.473-.055-.736-.164a3.825 3.825 0 01-.633-.321 15.852 15.852 0 01-.62-.439c-.602-.442-1.712-1.212-3.328-2.31A3.547 3.547 0 010 3.326v5.317c0 .295.105.547.315.757.21.21.462.315.756.315h9.858c.294 0 .546-.105.756-.315.21-.21.315-.462.315-.757V3.326a3.692 3.692 0 01-.67.583z"/></symbol><symbol viewBox="0 0 16 12" id="metro" xmlns="http://www.w3.org/2000/svg"><path d="M10.594 0L8 7.354 5.406 0C2.321.954 0 3.541 0 6.507c0 1.787.81 3.435 2.121 4.649h3.76l.395-1.538C1.784 8.035 2.633 3.13 4.262 2.328c.193.053 3.026 8.792 3.026 8.792h1.424s2.833-8.739 3.026-8.791c1.629.8 2.478 5.706-2.014 7.29l.394 1.537h3.76C15.19 9.942 16 8.294 16 6.507 16 3.541 13.679.954 10.594 0z"/></symbol><symbol viewBox="0 0 12 12" id="phone" xmlns="http://www.w3.org/2000/svg"><path d="M11.731 9.491L9.878 7.634c-.37-.369-.98-.357-1.363.026l-.933.935a27.15 27.15 0 01-.185-.103c-.59-.327-1.396-.776-2.245-1.628-.852-.853-1.3-1.663-1.628-2.254a6.926 6.926 0 00-.1-.18l.626-.628.309-.31c.382-.383.393-.995.024-1.365L2.53.27c-.368-.37-.98-.358-1.362.025L.645.822.66.836a3.029 3.029 0 00-.43.76 3.16 3.16 0 00-.192.773C-.207 4.402.72 6.26 3.236 8.782c3.478 3.485 6.28 3.222 6.401 3.209a3.124 3.124 0 001.529-.624l.011.01.53-.52c.381-.383.392-.995.024-1.366z"/></symbol><symbol viewBox="0 0 50 52" id="sale" xmlns="http://www.w3.org/2000/svg"><path d="M2.458 26.674c.21-.428.21-.92 0-1.347L.52 21.359a4.514 4.514 0 011.948-5.994l3.9-2.07c.422-.223.71-.62.793-1.09l.763-4.35a4.514 4.514 0 015.099-3.704l4.372.618c.472.067.939-.085 1.281-.416l3.174-3.07a4.514 4.514 0 016.303 0l3.174 3.07c.343.331.81.483 1.281.416l4.373-.618a4.514 4.514 0 015.099 3.705l.763 4.35c.082.469.37.866.792 1.09l3.9 2.069a4.514 4.514 0 011.948 5.995l-1.939 3.967c-.21.428-.21.919 0 1.347l1.94 3.967a4.514 4.514 0 01-1.948 5.995l-3.901 2.07c-.421.223-.71.62-.792 1.09l-.763 4.35a4.511 4.511 0 01-5.1 3.704l-4.372-.619a1.523 1.523 0 00-1.28.417l-3.175 3.07A4.518 4.518 0 0125.001 52a4.52 4.52 0 01-3.152-1.282l-3.174-3.07a1.525 1.525 0 00-1.28-.417l-4.373.619a4.514 4.514 0 01-5.1-3.705l-.763-4.35a1.524 1.524 0 00-.791-1.09l-3.901-2.07a4.514 4.514 0 01-1.948-5.994l1.94-3.967zm1.415 7.312l3.9 2.07a4.504 4.504 0 012.34 3.221l.763 4.35c.144.82.902 1.37 1.726 1.253l4.372-.618a4.502 4.502 0 013.787 1.23l3.174 3.07a1.527 1.527 0 002.132 0l3.174-3.07a4.5 4.5 0 013.786-1.23l4.373.618a1.528 1.528 0 001.725-1.253l.763-4.35a4.504 4.504 0 012.34-3.22l3.901-2.07a1.527 1.527 0 00.66-2.029l-1.94-3.967a4.504 4.504 0 010-3.981l1.94-3.968a1.527 1.527 0 00-.66-2.028l-3.9-2.07a4.504 4.504 0 01-2.34-3.22l-.764-4.35A1.527 1.527 0 0037.4 7.12l-4.372.619a4.504 4.504 0 01-3.787-1.23l-3.174-3.07a1.527 1.527 0 00-2.132 0l-3.174 3.07a4.503 4.503 0 01-3.787 1.23l-4.372-.619a1.528 1.528 0 00-1.725 1.254l-.763 4.35a4.504 4.504 0 01-2.34 3.22l-3.901 2.07a1.527 1.527 0 00-.66 2.028l1.94 3.967a4.504 4.504 0 010 3.982l-1.94 3.967a1.527 1.527 0 00.66 2.028z"/><path d="M14.043 15.044a1.5 1.5 0 012.12 0l19.794 19.793a1.5 1.5 0 01-2.12 2.12L14.042 17.165a1.5 1.5 0 010-2.12zm16.955-2.54a5.505 5.505 0 015.499 5.498 5.505 5.505 0 01-5.499 5.499 5.505 5.505 0 01-5.498-5.499 5.505 5.505 0 015.498-5.498zm0 7.998c1.378 0 2.5-1.121 2.5-2.5a2.503 2.503 0 00-2.5-2.499 2.502 2.502 0 00-2.5 2.5 2.503 2.503 0 002.5 2.499zm-11.996 7.997a5.505 5.505 0 015.498 5.499 5.505 5.505 0 01-5.498 5.498 5.505 5.505 0 01-5.498-5.498 5.505 5.505 0 015.498-5.499zm0 7.998c1.378 0 2.5-1.121 2.5-2.5a2.503 2.503 0 00-2.5-2.499 2.502 2.502 0 00-2.5 2.5 2.503 2.503 0 002.5 2.499z"/></symbol><symbol viewBox="0 0 17 17" id="telegram" xmlns="http://www.w3.org/2000/svg"><g clip-path="url(#mclip0)"><path d="M13.685 16.103a.673.673 0 01-.377-.116l-4.275-2.9-2.292 1.65a.674.674 0 01-1.044-.374L4.546 10 .433 8.427a.673.673 0 01-.009-1.253L16.064.95a.672.672 0 01.922.755l-2.64 13.851a.673.673 0 01-.66.547zm-4.277-4.387l3.808 2.583L15.27 3.52l-7.419 7.14 1.54 1.044a.348.348 0 01.018.012zm-3.17-.574l.51 1.931 1.1-.79-1.44-.976a.672.672 0 01-.17-.165zM2.525 7.786l2.825 1.08a.673.673 0 01.41.457l.358 1.357a.673.673 0 01.203-.415l7.069-6.802L2.524 7.786z"/></g><defs><clipPath id="mclip0"><path d="M0 0h17v17H0z"/></clipPath></defs></symbol><symbol viewBox="0 0 33 18" id="vk" xmlns="http://www.w3.org/2000/svg"><path d="M32.825 16.256a2.142 2.142 0 00-.112-.205c-.572-.986-1.666-2.196-3.282-3.63l-.034-.034-.017-.016-.017-.016h-.017c-.733-.668-1.198-1.117-1.392-1.347-.355-.438-.435-.882-.24-1.331.137-.34.652-1.056 1.546-2.152.47-.58.841-1.045 1.116-1.396 1.982-2.519 2.841-4.128 2.578-4.83l-.103-.163c-.069-.099-.246-.189-.532-.271-.287-.082-.653-.096-1.1-.041L26.27.857c-.08-.028-.195-.025-.344.008l-.224.05-.086.04-.068.05a.75.75 0 00-.189.172 1.112 1.112 0 00-.171.288 26.328 26.328 0 01-1.84 3.695 34.77 34.77 0 01-1.168 1.766c-.355.498-.652.865-.893 1.1-.24.236-.458.425-.653.567-.195.143-.343.203-.446.181a12.43 12.43 0 01-.293-.066 1.113 1.113 0 01-.386-.402 1.743 1.743 0 01-.198-.64 6.761 6.761 0 01-.06-.666 13.32 13.32 0 01.009-.789c.012-.34.017-.569.017-.69 0-.416.009-.867.026-1.355.017-.487.03-.873.043-1.158.011-.284.017-.585.017-.903 0-.318-.02-.567-.06-.747-.04-.181-.1-.356-.18-.526a.898.898 0 00-.353-.394 2.038 2.038 0 00-.575-.222c-.607-.132-1.38-.203-2.32-.214-2.13-.022-3.5.11-4.106.395-.24.12-.459.284-.653.492-.207.241-.235.373-.086.394.687.099 1.174.334 1.46.707l.103.197c.08.142.16.394.24.756.081.36.133.76.155 1.198.058.8.058 1.484 0 2.054a22.73 22.73 0 01-.163 1.33 2.578 2.578 0 01-.232.772 3.238 3.238 0 01-.206.362.291.291 0 01-.086.082 1.34 1.34 0 01-.464.082c-.16 0-.355-.077-.584-.23a4.057 4.057 0 01-.713-.633 8.422 8.422 0 01-.833-1.125c-.31-.482-.63-1.05-.962-1.708l-.275-.476a40.309 40.309 0 01-.705-1.34 25.251 25.251 0 01-.79-1.7 1.09 1.09 0 00-.412-.525l-.086-.05a1.194 1.194 0 00-.275-.139A1.889 1.889 0 005.808.79L1.1.823c-.481 0-.808.104-.98.312l-.068.099A.512.512 0 000 1.497c0 .12.034.268.103.443a53.202 53.202 0 002.242 4.468c.808 1.435 1.51 2.59 2.105 3.466a40.96 40.96 0 001.821 2.48C6.89 13.132 7.3 13.63 7.5 13.85c.2.22.358.383.472.493l.43.394c.275.263.678.577 1.211.944s1.123.729 1.77 1.085c.647.355 1.4.646 2.26.87a8.12 8.12 0 002.508.271h1.976c.4-.033.704-.153.91-.361l.069-.083c.046-.065.089-.166.129-.303a1.6 1.6 0 00.06-.452 5.16 5.16 0 01.111-1.273c.086-.377.184-.662.293-.854.109-.191.232-.353.369-.484a1.48 1.48 0 01.292-.238c.058-.028.103-.047.137-.058.275-.087.599-.003.971.255.373.257.722.575 1.049.953.326.378.718.802 1.177 1.273.458.47.859.82 1.202 1.051l.344.197c.23.132.527.252.894.362.366.109.686.136.962.082l4.398-.066c.435 0 .773-.069 1.014-.205.24-.137.383-.288.43-.452.045-.164.047-.35.008-.559a1.991 1.991 0 00-.121-.435z"/></symbol></svg>